<?xml version="1.0" encoding="utf-8"?>
<!-- Generator: Adobe Illustrator 19.1.0, SVG Export Plug-In . SVG Version: 6.00 Build 0)  -->
<svg version="1.1" id="Layer_1" xmlns="http://www.w3.org/2000/svg" xmlns:xlink="http://www.w3.org/1999/xlink" x="0px" y="0px"
	 viewBox="-755 919.5 190.5 147.7" style="enable-background:new -755 919.5 190.5 147.7;" xml:space="preserve">
<style type="text/css">
	.st0{fill:#45124A;}
	.st1{fill:none;}
	.st2{enable-background:new    ;}
</style>
<g>
	<g>
		<g>
			<g>
				<path class="st0" d="M-601.1,950.8c-12.4,3-20,15.4-17,27.8c3,12.4,15.5,20,27.8,17c12.4-3,20-15.5,17-27.8
					S-588.7,948-601.1,950.8z M-590.4,995.1c-12,2.9-24.2-4.5-27.1-16.5s4.5-24.2,16.5-27.1s24.2,4.5,27.1,16.5
					C-571,980-578.4,992.1-590.4,995.1z"/>
			</g>
		</g>
		<g>
			<g>
				<path class="st0" d="M-603,943c-16.8,4-27.1,20.9-23,37.6c4,16.8,20.9,27.1,37.7,23c16.7-4,27.1-20.9,23-37.6
					C-569.4,949.2-586.2,939-603,943z M-590.1,996.2c-12.6,3.1-25.4-4.7-28.4-17.4c-3-12.6,4.7-25.4,17.4-28.4
					c12.6-3.1,25.4,4.7,28.4,17.4C-569.7,980.5-577.5,993.1-590.1,996.2z"/>
			</g>
		</g>
		<g>
			<g>
				<path class="st0" d="M-600.8,952c-11.8,2.8-19,14.7-16.2,26.4c2.8,11.8,14.7,19,26.4,16.2c11.8-2.8,19-14.7,16.2-26.5
					C-577.2,956.3-589.1,949.1-600.8,952z M-590.6,994.1c-11.5,2.8-23.1-4.3-25.9-15.8s4.3-23.1,15.8-25.9
					c11.5-2.8,23.1,4.3,25.9,15.8C-572.1,979.8-579.1,991.3-590.6,994.1z"/>
			</g>
		</g>
		<g>
			<g>
				<path class="st0" d="M-600.4,953.5c-10.9,2.6-17.6,13.6-15,24.5c2.6,10.9,13.6,17.6,24.5,15c10.9-2.6,17.6-13.6,15-24.5
					C-578.5,957.6-589.5,951-600.4,953.5z M-591,992.5c-10.7,2.6-21.4-4-24-14.6c-2.5-10.7,4-21.4,14.6-23.9
					c10.7-2.5,21.4,4,24,14.6C-573.8,979.3-580.4,990-591,992.5z"/>
			</g>
		</g>
	</g>
	<g>
		<g>
			<g>
				<g>
					<path class="st0" d="M-736.9,1008c-1.8-7.3,2.8-14.7,10.2-16.5l0,0c7.4-1.8,14.8,2.7,16.5,10l0,0c1.8,7.3-2.8,14.7-10.2,16.5
						l0,0C-727.7,1019.8-735.1,1015.2-736.9,1008L-736.9,1008z M-735.9,1007.8c1.7,6.8,8.5,10.9,15.4,9.3l0,0
						c6.8-1.7,11.1-8.5,9.4-15.3l0,0c-1.6-6.8-8.5-10.9-15.4-9.3l0,0C-733.3,994.1-737.6,1001-735.9,1007.8L-735.9,1007.8z"/>
				</g>
			</g>
		</g>
	</g>
	<g>
		<g>
			<g>
				<path class="st0" d="M-721.4,1018.2l-0.2-1l69-14.9l-0.2-14.4l-17.1,0.6l-53.6,3.6l-0.1-1l53.6-3.6l18.2-0.5l0.2,16.2
					L-721.4,1018.2L-721.4,1018.2z M-723.6,992L-723.6,992L-723.6,992L-723.6,992z"/>
			</g>
		</g>
	</g>
	<g>
		<g>
			<g>
				<path class="st0" d="M-729.2,982.2c-12.4,3-20,15.4-17,27.8s15.4,20,27.8,17c12.4-3,20-15.4,17-27.8
					C-704.4,986.8-716.8,979.2-729.2,982.2z M-718.5,1026.4c-12,2.9-24.2-4.5-27.1-16.5c-2.9-12,4.5-24.2,16.5-27.1
					c12-2.9,24.2,4.5,27.1,16.5C-699.1,1011.5-706.5,1023.5-718.5,1026.4z"/>
			</g>
		</g>
		<g>
			<g>
				<path class="st0" d="M-731.1,974.3c-16.7,4-27.1,20.9-23,37.6c4,16.8,20.9,27.1,37.7,23c16.8-4,27.1-20.9,23-37.7
					C-697.5,980.6-714.4,970.3-731.1,974.3z M-718.3,1027.6c-12.6,3.1-25.4-4.7-28.4-17.4c-3-12.6,4.7-25.3,17.4-28.4
					c12.7-3.1,25.4,4.7,28.4,17.4C-697.8,1011.8-705.6,1024.6-718.3,1027.6z"/>
			</g>
		</g>
		<g>
			<g>
				<path class="st0" d="M-728.9,983.3c-11.8,2.8-19,14.7-16.2,26.4c2.8,11.8,14.7,19,26.4,16.2c11.8-2.8,19-14.7,16.2-26.4
					C-705.3,987.8-717.2,980.5-728.9,983.3z M-718.8,1025.6c-11.5,2.8-23.1-4.3-25.9-15.8s4.3-23.1,15.8-25.9s23.1,4.3,25.9,15.8
					S-707.3,1022.8-718.8,1025.6z"/>
			</g>
		</g>
		<g>
			<g>
				<path class="st0" d="M-728.6,985c-10.9,2.6-17.6,13.6-14.9,24.5c2.6,10.9,13.6,17.6,24.5,15c10.9-2.6,17.6-13.6,15-24.5
					C-706.6,989-717.6,982.2-728.6,985z M-719.1,1024c-10.7,2.6-21.4-4-23.9-14.6c-2.6-10.7,4-21.4,14.6-23.9
					c10.7-2.6,21.4,4,24,14.6C-701.9,1010.6-708.5,1021.3-719.1,1024z"/>
			</g>
		</g>
	</g>
	<g>
		<g>
			<g>
				<g>
					<polygon class="st0" points="-732.1,986.5 -731.6,986.2 -724.1,996.8 -724.5,997.1 					"/>
				</g>
			</g>
			<g>
				<g>
					<polygon class="st0" points="-727.2,997.8 -726.1,984.8 -725.6,984.8 -726.6,997.8 					"/>
				</g>
			</g>
		</g>
		<g>
			<g>
				<g>
					<polygon class="st0" points="-741.9,996.2 -741.7,995.6 -729.1,999 -729.2,999.5 					"/>
				</g>
			</g>
			<g>
				<g>
					<polygon class="st0" points="-738.4,991 -737.9,990.8 -730.3,1001.3 -730.8,1001.6 					"/>
				</g>
			</g>
		</g>
		<g>
			<g>
				<g>
					<polygon class="st0" points="-743.3,1009.3 -731.6,1003.8 -731.3,1004.2 -743.1,1010 					"/>
				</g>
			</g>
			<g>
				<g>
					<polygon class="st0" points="-743.8,1003.8 -743.6,1003.1 -731,1006.5 -731.1,1007 					"/>
				</g>
			</g>
		</g>
		<g>
			<g>
				<g>
					<polygon class="st0" points="-735.8,1021 -730.4,1009 -729.9,1009.2 -735.3,1021.1 					"/>
				</g>
			</g>
			<g>
				<g>
					<polygon class="st0" points="-740,1016.3 -728.2,1010.8 -728,1011.2 -739.7,1016.8 					"/>
				</g>
			</g>
		</g>
		<g>
			<g>
				<g>
					<polygon class="st0" points="-726.1,1012.3 -725.5,1012.2 -722,1024.8 -722.6,1024.9 					"/>
				</g>
			</g>
			<g>
				<g>
					<polygon class="st0" points="-728.8,1024.2 -723.3,1012.2 -722.8,1012.5 -728.2,1024.3 					"/>
				</g>
			</g>
		</g>
		<g>
			<g>
				<g>
					<polygon class="st0" points="-720.7,1012.1 -720.3,1011.6 -709.6,1019 -709.9,1019.5 					"/>
				</g>
			</g>
			<g>
				<g>
					<polygon class="st0" points="-718.6,1010.2 -718.1,1010.1 -714.6,1022.6 -715.2,1022.8 					"/>
				</g>
			</g>
		</g>
		<g>
			<g>
				<g>
					<polygon class="st0" points="-716.6,1008.5 -716.7,1007.8 -703.7,1006.5 -703.7,1007.1 					"/>
				</g>
			</g>
			<g>
				<g>
					<polygon class="st0" points="-716.3,1005.8 -716,1005.2 -705.2,1012.6 -705.5,1013.1 					"/>
				</g>
			</g>
		</g>
		<g>
			<g>
				<g>
					<polygon class="st0" points="-716.3,1002.6 -707.2,993.3 -706.8,993.8 -715.9,1003 					"/>
				</g>
			</g>
			<g>
				<g>
					<polygon class="st0" points="-717.4,1000.8 -717.5,1000.1 -704.5,999 -704.4,999.5 					"/>
				</g>
			</g>
		</g>
		<g>
			<g>
				<g>
					<polygon class="st0" points="-719.4,998.5 -718.4,985.5 -717.9,985.5 -718.9,998.5 					"/>
				</g>
			</g>
			<g>
				<g>
					<polygon class="st0" points="-721.9,997.2 -712.8,988 -712.3,988.3 -721.5,997.6 					"/>
				</g>
			</g>
		</g>
	</g>
	<g>
		<g>
			<g>
				<polygon class="st0" points="-731.9,976.5 -732.4,974.5 -731.6,974.3 -731.1,976.3 				"/>
			</g>
			<g>
				<polygon class="st0" points="-734.4,975.2 -733.7,975 -733,976.8 -733.8,977.1 				"/>
			</g>
			<g>
				<polygon class="st0" points="-736.5,976 -735.7,975.8 -735,977.6 -735.7,978 				"/>
			</g>
			<g>
				<polygon class="st0" points="-738.4,977 -737.7,976.6 -736.8,978.5 -737.6,978.8 				"/>
			</g>
			<g>
				<polygon class="st0" points="-740.3,978 -739.6,977.6 -738.6,979.5 -739.3,979.8 				"/>
			</g>
			<g>
				<polygon class="st0" points="-742.1,979.2 -741.5,978.8 -740.3,980.5 -741,981 				"/>
			</g>
			<g>
				<polygon class="st0" points="-743.9,980.6 -743.2,980.1 -742,981.8 -742.6,982.2 				"/>
			</g>
			<g>
				<polygon class="st0" points="-745.5,982 -744.9,981.5 -743.5,983 -744.1,983.5 				"/>
			</g>
			<g>
				<polygon class="st0" points="-747,983.6 -746.4,983 -745,984.5 -745.6,985 				"/>
			</g>
			<g>
				<polygon class="st0" points="-748.4,985.3 -747.9,984.6 -746.3,986 -746.9,986.6 				"/>
			</g>
			<g>
				<polygon class="st0" points="-749.7,987 -749.2,986.3 -747.6,987.5 -748.1,988.2 				"/>
			</g>
			<g>
				<polygon class="st0" points="-750.9,989 -750.4,988.2 -748.7,989.2 -749.2,990 				"/>
			</g>
			<g>
				<polygon class="st0" points="-751.9,990.8 -751.5,990.1 -749.7,991 -750.1,991.8 				"/>
			</g>
			<g>
				<polygon class="st0" points="-752.8,992.8 -752.5,992 -750.6,993 -751,993.6 				"/>
			</g>
			<g>
				<polygon class="st0" points="-753.5,994.8 -753.3,994 -751.4,994.8 -751.7,995.5 				"/>
			</g>
			<g>
				<polygon class="st0" points="-754.2,997 -753.9,996.1 -752,996.8 -752.2,997.5 				"/>
			</g>
			<g>
				<polygon class="st0" points="-754.6,999.1 -754.4,998.2 -752.5,998.8 -752.6,999.5 				"/>
			</g>
			<g>
				<polygon class="st0" points="-754.9,1001.2 -754.8,1000.5 -752.8,1000.8 -752.9,1001.5 				"/>
			</g>
			<g>
				<polygon class="st0" points="-755.1,1003.5 -755,1002.6 -753,1002.8 -753.1,1003.5 				"/>
			</g>
			<g>
				<polygon class="st0" points="-755.1,1005.6 -755.1,1004.8 -753.1,1004.8 -753.1,1005.6 				"/>
			</g>
			<g>
				<polygon class="st0" points="-754.9,1007.8 -755,1007 -753,1006.8 -752.9,1007.6 				"/>
			</g>
			<g>
				<polygon class="st0" points="-754.7,1010 -754.8,1009.1 -752.8,1008.8 -752.7,1009.6 				"/>
			</g>
			<g>
				<polygon class="st0" points="-754.2,1012 -754.4,1011.2 -752.4,1010.8 -752.2,1011.6 				"/>
			</g>
			<g>
				<polygon class="st0" points="-753.8,1013.5 -751.9,1012.8 -751.7,1013.6 -753.6,1014.1 				"/>
			</g>
			<g>
				<polygon class="st0" points="-753.2,1015.5 -751.2,1014.8 -751,1015.5 -752.9,1016.2 				"/>
			</g>
			<g>
				<polygon class="st0" points="-752.3,1017.5 -750.5,1016.6 -750.1,1017.5 -752,1018.2 				"/>
			</g>
			<g>
				<polygon class="st0" points="-751.4,1019.5 -749.6,1018.5 -749.2,1019.2 -751,1020.1 				"/>
			</g>
			<g>
				<polygon class="st0" points="-750.3,1021.3 -748.5,1020.2 -748.1,1021 -749.8,1022 				"/>
			</g>
			<g>
				<polygon class="st0" points="-749,1023.1 -747.4,1022 -746.9,1022.6 -748.5,1023.8 				"/>
			</g>
			<g>
				<polygon class="st0" points="-747.7,1024.8 -746.1,1023.5 -745.6,1024.2 -747.2,1025.4 				"/>
			</g>
			<g>
				<polygon class="st0" points="-746.2,1026.4 -744.7,1025.1 -744.2,1025.7 -745.6,1027.1 				"/>
			</g>
			<g>
				<polygon class="st0" points="-744.6,1027.9 -743.3,1026.4 -742.7,1027.1 -744,1028.6 				"/>
			</g>
			<g>
				<polygon class="st0" points="-743,1029.3 -741.7,1027.8 -741.1,1028.2 -742.3,1029.8 				"/>
			</g>
			<g>
				<polygon class="st0" points="-741.2,1030.7 -740,1028.9 -739.4,1029.4 -740.5,1031.1 				"/>
			</g>
			<g>
				<polygon class="st0" points="-739.3,1031.8 -738.3,1030.1 -737.6,1030.4 -738.6,1032.2 				"/>
			</g>
			<g>
				<polygon class="st0" points="-737.4,1032.8 -736.5,1030.9 -735.8,1031.3 -736.7,1033.2 				"/>
			</g>
			<g>
				<polygon class="st0" points="-735.4,1033.7 -734.6,1031.8 -733.9,1032.2 -734.6,1033.9 				"/>
			</g>
			<g>
				<polygon class="st0" points="-733.4,1034.3 -732.7,1032.4 -731.9,1032.8 -732.6,1034.7 				"/>
			</g>
			<g>
				<polygon class="st0" points="-731.2,1034.9 -730.7,1033.1 -729.9,1033.2 -730.4,1035.2 				"/>
			</g>
			<g>
				<polygon class="st0" points="-729.1,1035.4 -728.8,1033.4 -727.9,1033.6 -728.3,1035.6 				"/>
			</g>
			<g>
				<polygon class="st0" points="-727,1035.8 -726.7,1033.8 -725.9,1033.8 -726.1,1035.8 				"/>
			</g>
			<g>
				<polygon class="st0" points="-724.8,1035.8 -724.7,1033.8 -723.9,1033.8 -723.9,1035.9 				"/>
			</g>
			<g>
				<polygon class="st0" points="-722.6,1035.8 -722.7,1033.8 -721.8,1033.8 -721.8,1035.8 				"/>
			</g>
			<g>
				<polygon class="st0" points="-720.4,1035.7 -720.6,1033.7 -719.8,1033.6 -719.6,1035.7 				"/>
			</g>
			<g>
				<polygon class="st0" points="-718.3,1035.3 -718.6,1033.3 -717.8,1033.2 -717.5,1035.2 				"/>
			</g>
			<g>
				<polygon class="st0" points="-716.1,1034.9 -716.6,1032.9 -715.8,1032.8 -715.3,1034.8 				"/>
			</g>
			<g>
				<polygon class="st0" points="-714.7,1032.3 -713.9,1032.2 -713.3,1034.1 -714,1034.2 				"/>
			</g>
			<g>
				<polygon class="st0" points="-712.7,1031.7 -712,1031.3 -711.2,1033.2 -712,1033.6 				"/>
			</g>
			<g>
				<polygon class="st0" points="-710.9,1030.8 -710.1,1030.4 -709.3,1032.2 -710,1032.7 				"/>
			</g>
			<g>
				<polygon class="st0" points="-709.1,1029.8 -708.4,1029.4 -707.4,1031.2 -708.1,1031.7 				"/>
			</g>
			<g>
				<polygon class="st0" points="-707.4,1028.8 -706.7,1028.3 -705.6,1029.9 -706.2,1030.4 				"/>
			</g>
			<g>
				<polygon class="st0" points="-705.7,1027.6 -705.1,1027.1 -703.8,1028.7 -704.5,1029.2 				"/>
			</g>
			<g>
				<polygon class="st0" points="-704.2,1026.2 -703.5,1025.7 -702.2,1027.2 -702.8,1027.8 				"/>
			</g>
			<g>
				<polygon class="st0" points="-702.7,1024.8 -702.1,1024.2 -700.7,1025.7 -701.3,1026.2 				"/>
			</g>
			<g>
				<polygon class="st0" points="-701.4,1023.2 -700.8,1022.6 -699.3,1024 -699.8,1024.6 				"/>
			</g>
			<g>
				<polygon class="st0" points="-700.1,1021.6 -699.6,1021 -698,1022.2 -698.5,1022.8 				"/>
			</g>
			<g>
				<polygon class="st0" points="-699,1020 -698.5,1019.2 -696.8,1020.3 -697.3,1021 				"/>
			</g>
			<g>
				<polygon class="st0" points="-698,1018.1 -697.6,1017.5 -695.8,1018.5 -696.2,1019.1 				"/>
			</g>
			<g>
				<polygon class="st0" points="-697.1,1016.3 -696.7,1015.6 -694.9,1016.5 -695.2,1017.1 				"/>
			</g>
			<g>
				<polygon class="st0" points="-696.3,1014.5 -696,1013.6 -694.1,1014.3 -694.4,1015.1 				"/>
			</g>
			<g>
				<polygon class="st0" points="-695.7,1012.5 -695.5,1011.8 -693.5,1012.2 -693.8,1013 				"/>
			</g>
			<g>
				<polygon class="st0" points="-695.2,1010.5 -695.1,1009.8 -693.1,1010.1 -693.3,1011 				"/>
			</g>
			<g>
				<polygon class="st0" points="-694.9,1008.5 -694.8,1007.8 -692.8,1008 -692.9,1008.8 				"/>
			</g>
			<g>
				<polygon class="st0" points="-694.7,1006.5 -694.6,1005.6 -692.6,1005.8 -692.7,1006.6 				"/>
			</g>
			<g>
				<polygon class="st0" points="-694.6,1004.5 -694.6,1003.6 -692.6,1003.6 -692.6,1004.5 				"/>
			</g>
			<g>
				<polygon class="st0" points="-694.7,1002.5 -694.8,1001.5 -692.7,1001.5 -692.7,1002.2 				"/>
			</g>
			<g>
				<polygon class="st0" points="-694.9,1000.3 -695.1,999.5 -693,999.3 -692.9,1000.1 				"/>
			</g>
			<g>
				<polygon class="st0" points="-695.3,998.3 -695.5,997.5 -693.5,997.1 -693.3,998 				"/>
			</g>
			<g>
				<polygon class="st0" points="-696,995.6 -694.1,995 -693.9,995.8 -695.8,996.5 				"/>
			</g>
			<g>
				<polygon class="st0" points="-696.7,993.6 -694.8,993 -694.5,993.8 -696.5,994.5 				"/>
			</g>
			<g>
				<polygon class="st0" points="-697.6,991.8 -695.7,991 -695.4,991.8 -697.2,992.5 				"/>
			</g>
			<g>
				<polygon class="st0" points="-698.5,990 -696.7,989 -696.3,989.8 -698.1,990.8 				"/>
			</g>
			<g>
				<polygon class="st0" points="-699.6,988.2 -697.9,987.2 -697.4,988 -699.2,989 				"/>
			</g>
			<g>
				<polygon class="st0" points="-700.8,986.6 -699.1,985.5 -698.7,986.1 -700.3,987.3 				"/>
			</g>
			<g>
				<polygon class="st0" points="-702.1,985 -700.5,983.8 -700,984.5 -701.6,985.8 				"/>
			</g>
			<g>
				<polygon class="st0" points="-703.5,983.6 -702.1,982.2 -701.5,982.8 -703,984.2 				"/>
			</g>
			<g>
				<polygon class="st0" points="-705,982.2 -703.7,980.8 -703.1,981.3 -704.4,982.8 				"/>
			</g>
			<g>
				<polygon class="st0" points="-706.6,981 -705.4,979.5 -704.7,980 -706,981.5 				"/>
			</g>
			<g>
				<polygon class="st0" points="-708.3,979.8 -707.2,978.1 -706.5,978.6 -707.7,980.3 				"/>
			</g>
			<g>
				<polygon class="st0" points="-710.1,978.8 -709.1,977 -708.4,977.5 -709.4,979.2 				"/>
			</g>
			<g>
				<polygon class="st0" points="-711.9,978 -711,976.1 -710.3,976.5 -711.2,978.2 				"/>
			</g>
			<g>
				<polygon class="st0" points="-713.8,977.1 -713.1,975.2 -712.3,975.6 -713.1,977.5 				"/>
			</g>
			<g>
				<polygon class="st0" points="-715.8,976.5 -715.1,974.6 -714.3,974.8 -715,976.8 				"/>
			</g>
			<g>
				<polygon class="st0" points="-717.7,976 -717.2,974 -716.4,974.2 -716.9,976.2 				"/>
			</g>
			<g>
				<polygon class="st0" points="-719.8,975.6 -719.4,973.6 -718.6,973.8 -718.9,975.8 				"/>
			</g>
			<g>
				<polygon class="st0" points="-721.8,975.5 -721.6,973.5 -720.7,973.5 -721,975.5 				"/>
			</g>
			<g>
				<polygon class="st0" points="-723.8,975.5 -723.7,973.3 -722.9,973.3 -723,975.5 				"/>
			</g>
			<g>
				<polygon class="st0" points="-725.9,975.5 -725.9,973.5 -725.1,973.5 -725,975.5 				"/>
			</g>
			<g>
				<polygon class="st0" points="-727.9,975.6 -728.1,973.6 -727.3,973.5 -727.1,975.5 				"/>
			</g>
			<g>
				<polygon class="st0" points="-729.9,976 -730.2,974 -729.4,973.8 -729.1,975.8 				"/>
			</g>
		</g>
		<g>
			<g>
				<polygon class="st0" points="-603.8,945.1 -604.2,943.1 -603.4,943 -602.9,945 				"/>
			</g>
			<g>
				<polygon class="st0" points="-606.3,943.8 -605.5,943.5 -604.9,945.5 -605.7,945.8 				"/>
			</g>
			<g>
				<polygon class="st0" points="-608.3,944.6 -607.6,944.3 -606.8,946.1 -607.6,946.5 				"/>
			</g>
			<g>
				<polygon class="st0" points="-610.3,945.5 -609.6,945.2 -608.7,947 -609.4,947.3 				"/>
			</g>
			<g>
				<polygon class="st0" points="-612.2,946.6 -611.5,946.2 -610.5,948 -611.2,948.5 				"/>
			</g>
			<g>
				<polygon class="st0" points="-614,947.8 -613.3,947.5 -612.2,949 -612.9,949.5 				"/>
			</g>
			<g>
				<polygon class="st0" points="-615.7,949.2 -615.1,948.8 -613.8,950.3 -614.5,950.8 				"/>
			</g>
			<g>
				<polygon class="st0" points="-617.3,950.6 -616.7,950.1 -615.4,951.6 -616,952.1 				"/>
			</g>
			<g>
				<polygon class="st0" points="-618.9,952.2 -618.3,951.6 -616.9,953 -617.4,953.6 				"/>
			</g>
			<g>
				<polygon class="st0" points="-620.3,953.8 -619.7,953.2 -618.2,954.5 -618.7,955.2 				"/>
			</g>
			<g>
				<polygon class="st0" points="-621.6,955.6 -621.1,955 -619.4,956.1 -619.9,956.8 				"/>
			</g>
			<g>
				<polygon class="st0" points="-622.7,957.5 -622.3,956.8 -620.6,957.8 -621,958.5 				"/>
			</g>
			<g>
				<polygon class="st0" points="-623.8,959.5 -623.4,958.6 -621.6,959.6 -622,960.3 				"/>
			</g>
			<g>
				<polygon class="st0" points="-624.7,961.5 -624.3,960.6 -622.5,961.5 -622.8,962.2 				"/>
			</g>
			<g>
				<polygon class="st0" points="-625.4,963.5 -625.1,962.6 -623.2,963.3 -623.5,964.1 				"/>
			</g>
			<g>
				<polygon class="st0" points="-626,965.5 -625.8,964.8 -623.9,965.3 -624.1,966.1 				"/>
			</g>
			<g>
				<polygon class="st0" points="-626.5,967.6 -626.3,966.8 -624.3,967.3 -624.5,968.1 				"/>
			</g>
			<g>
				<polygon class="st0" points="-626.8,969.8 -626.7,969 -624.7,969.3 -624.8,970.1 				"/>
			</g>
			<g>
				<polygon class="st0" points="-627,972 -626.9,971.2 -624.9,971.3 -624.9,972.1 				"/>
			</g>
			<g>
				<polygon class="st0" points="-627,974.2 -627,973.3 -624.9,973.5 -624.9,974.2 				"/>
			</g>
			<g>
				<polygon class="st0" points="-626.8,976.3 -626.9,975.5 -624.9,975.5 -624.8,976.2 				"/>
			</g>
			<g>
				<polygon class="st0" points="-626.5,978.5 -626.6,977.8 -624.6,977.5 -624.5,978.2 				"/>
			</g>
			<g>
				<polygon class="st0" points="-626.1,980.6 -626.2,979.8 -624.3,979.5 -624.1,980.2 				"/>
			</g>
			<g>
				<polygon class="st0" points="-625.7,982 -623.7,981.5 -623.5,982.2 -625.5,982.8 				"/>
			</g>
			<g>
				<polygon class="st0" points="-625,984 -623.1,983.3 -622.8,984.1 -624.7,984.8 				"/>
			</g>
			<g>
				<polygon class="st0" points="-624.2,986 -622.3,985.2 -622,986 -623.9,986.8 				"/>
			</g>
			<g>
				<polygon class="st0" points="-623.2,988 -621.4,987 -621,987.8 -622.8,988.8 				"/>
			</g>
			<g>
				<polygon class="st0" points="-622.1,990 -620.4,988.8 -620,989.5 -621.7,990.6 				"/>
			</g>
			<g>
				<polygon class="st0" points="-620.9,991.8 -619.3,990.5 -618.8,991.2 -620.4,992.3 				"/>
			</g>
			<g>
				<polygon class="st0" points="-619.5,993.5 -618,992.1 -617.5,992.8 -619,994 				"/>
			</g>
			<g>
				<polygon class="st0" points="-618.1,995 -616.6,993.6 -616,994.2 -617.5,995.6 				"/>
			</g>
			<g>
				<polygon class="st0" points="-616.5,996.5 -615.1,995 -614.5,995.6 -615.9,997.1 				"/>
			</g>
			<g>
				<polygon class="st0" points="-614.8,998 -613.6,996.3 -612.9,996.8 -614.2,998.5 				"/>
			</g>
			<g>
				<polygon class="st0" points="-613,999.2 -611.9,997.5 -611.2,998 -612.4,999.6 				"/>
			</g>
			<g>
				<polygon class="st0" points="-611.2,1000.3 -610.2,998.6 -609.5,999 -610.5,1000.8 				"/>
			</g>
			<g>
				<polygon class="st0" points="-609.3,1001.3 -608.4,999.5 -607.6,1000 -608.5,1001.8 				"/>
			</g>
			<g>
				<polygon class="st0" points="-607.3,1002.2 -606.5,1000.3 -605.7,1000.6 -606.5,1002.5 				"/>
			</g>
			<g>
				<polygon class="st0" points="-605.2,1003 -604.6,1001 -603.8,1001.3 -604.4,1003.2 				"/>
			</g>
			<g>
				<polygon class="st0" points="-603.1,1003.5 -602.6,1001.6 -601.8,1001.8 -602.3,1003.8 				"/>
			</g>
			<g>
				<polygon class="st0" points="-601,1004 -600.6,1002 -599.8,1002.1 -600.2,1004.1 				"/>
			</g>
			<g>
				<polygon class="st0" points="-598.8,1004.3 -598.6,1002.3 -597.8,1002.3 -598,1004.3 				"/>
			</g>
			<g>
				<polygon class="st0" points="-596.6,1004.5 -596.6,1002.5 -595.7,1002.5 -595.8,1004.5 				"/>
			</g>
			<g>
				<polygon class="st0" points="-594.5,1004.5 -594.5,1002.5 -593.7,1002.3 -593.6,1004.5 				"/>
			</g>
			<g>
				<polygon class="st0" points="-592.3,1004.2 -592.5,1002.2 -591.7,1002.1 -591.5,1004.1 				"/>
			</g>
			<g>
				<polygon class="st0" points="-590.1,1004 -590.5,1002 -589.7,1001.8 -589.3,1003.8 				"/>
			</g>
			<g>
				<polygon class="st0" points="-588.5,1001.5 -587.7,1001.3 -587.2,1003.3 -588,1003.5 				"/>
			</g>
			<g>
				<polygon class="st0" points="-586.5,1001 -585.7,1000.8 -585.1,1002.6 -585.9,1002.8 				"/>
			</g>
			<g>
				<polygon class="st0" points="-584.6,1000.2 -583.8,1000 -583.1,1001.8 -583.9,1002.1 				"/>
			</g>
			<g>
				<polygon class="st0" points="-582.7,999.5 -582,999 -581.1,1000.8 -581.9,1001.2 				"/>
			</g>
			<g>
				<polygon class="st0" points="-581,998.5 -580.2,998 -579.2,999.8 -580,1000.2 				"/>
			</g>
			<g>
				<polygon class="st0" points="-579.2,997.3 -578.5,997 -577.4,998.5 -578.1,999 				"/>
			</g>
			<g>
				<polygon class="st0" points="-577.6,996.1 -576.9,995.6 -575.7,997.2 -576.3,997.8 				"/>
			</g>
			<g>
				<polygon class="st0" points="-576,994.8 -575.4,994.2 -574.1,995.8 -574.7,996.3 				"/>
			</g>
			<g>
				<polygon class="st0" points="-574.6,993.3 -574,992.8 -572.5,994.2 -573.1,994.8 				"/>
			</g>
			<g>
				<polygon class="st0" points="-573.2,991.8 -572.7,991.2 -571.1,992.5 -571.7,993.1 				"/>
			</g>
			<g>
				<polygon class="st0" points="-572,990.2 -571.5,989.5 -569.8,990.8 -570.3,991.5 				"/>
			</g>
			<g>
				<polygon class="st0" points="-570.8,988.5 -570.4,987.8 -568.7,989 -569.1,989.6 				"/>
			</g>
			<g>
				<polygon class="st0" points="-569.8,986.8 -569.4,986 -567.7,987 -568.1,987.8 				"/>
			</g>
			<g>
				<polygon class="st0" points="-568.9,985 -568.6,984.1 -566.8,985 -567.1,985.8 				"/>
			</g>
			<g>
				<polygon class="st0" points="-568.2,983 -567.9,982.2 -566,983 -566.3,983.8 				"/>
			</g>
			<g>
				<polygon class="st0" points="-567.6,981.1 -567.3,980.3 -565.4,980.8 -565.6,981.6 				"/>
			</g>
			<g>
				<polygon class="st0" points="-567.1,979.1 -566.9,978.3 -564.9,978.8 -565.1,979.5 				"/>
			</g>
			<g>
				<polygon class="st0" points="-566.8,977.1 -566.6,976.2 -564.6,976.5 -564.8,977.5 				"/>
			</g>
			<g>
				<polygon class="st0" points="-566.6,975 -566.5,974.2 -564.5,974.5 -564.5,975.2 				"/>
			</g>
			<g>
				<polygon class="st0" points="-566.5,973 -566.5,972.2 -564.5,972.2 -564.5,973 				"/>
			</g>
			<g>
				<polygon class="st0" points="-566.6,971 -566.6,970.1 -564.6,970 -564.6,970.8 				"/>
			</g>
			<g>
				<polygon class="st0" points="-566.8,969 -566.9,968.1 -564.9,967.8 -564.8,968.8 				"/>
			</g>
			<g>
				<polygon class="st0" points="-567.2,967 -567.3,966.1 -565.4,965.8 -565.2,966.5 				"/>
			</g>
			<g>
				<polygon class="st0" points="-567.9,964.2 -565.9,963.6 -565.7,964.5 -567.7,965 				"/>
			</g>
			<g>
				<polygon class="st0" points="-568.6,962.2 -566.7,961.6 -566.4,962.3 -568.3,963 				"/>
			</g>
			<g>
				<polygon class="st0" points="-569.4,960.5 -567.6,959.6 -567.2,960.3 -569.1,961.1 				"/>
			</g>
			<g>
				<polygon class="st0" points="-570.4,958.6 -568.6,957.6 -568.2,958.5 -570,959.3 				"/>
			</g>
			<g>
				<polygon class="st0" points="-571.5,956.8 -569.7,955.8 -569.3,956.5 -571,957.5 				"/>
			</g>
			<g>
				<polygon class="st0" points="-572.7,955.2 -571,954 -570.5,954.8 -572.2,956 				"/>
			</g>
			<g>
				<polygon class="st0" points="-574,953.6 -572.4,952.3 -571.9,953 -573.4,954.3 				"/>
			</g>
			<g>
				<polygon class="st0" points="-575.4,952.2 -573.9,950.8 -573.3,951.3 -574.8,952.8 				"/>
			</g>
			<g>
				<polygon class="st0" points="-576.9,950.8 -575.5,949.3 -574.9,949.8 -576.3,951.3 				"/>
			</g>
			<g>
				<polygon class="st0" points="-578.5,949.5 -577.3,948 -576.6,948.5 -577.9,950 				"/>
			</g>
			<g>
				<polygon class="st0" points="-580.2,948.5 -579.1,946.8 -578.4,947.2 -579.5,948.8 				"/>
			</g>
			<g>
				<polygon class="st0" points="-582,947.5 -580.9,945.6 -580.2,946 -581.3,947.8 				"/>
			</g>
			<g>
				<polygon class="st0" points="-583.8,946.5 -582.9,944.8 -582.2,945 -583.1,946.8 				"/>
			</g>
			<g>
				<polygon class="st0" points="-585.7,945.8 -584.9,943.8 -584.2,944.1 -584.9,946 				"/>
			</g>
			<g>
				<polygon class="st0" points="-587.6,945.1 -587,943.1 -586.2,943.5 -586.8,945.3 				"/>
			</g>
			<g>
				<polygon class="st0" points="-589.6,944.6 -589.1,942.6 -588.3,942.8 -588.8,944.8 				"/>
			</g>
			<g>
				<polygon class="st0" points="-591.6,944.2 -591.3,942.2 -590.4,942.5 -590.8,944.5 				"/>
			</g>
			<g>
				<polygon class="st0" points="-593.7,944 -593.4,942 -592.6,942.1 -592.8,944.1 				"/>
			</g>
			<g>
				<polygon class="st0" points="-595.7,944 -595.6,942 -594.8,942 -594.9,944 				"/>
			</g>
			<g>
				<polygon class="st0" points="-597.7,944 -597.8,942 -597,942 -596.9,944 				"/>
			</g>
			<g>
				<polygon class="st0" points="-599.8,944.2 -600,942.2 -599.1,942.1 -598.9,944.1 				"/>
			</g>
			<g>
				<polygon class="st0" points="-601.8,944.6 -602.1,942.6 -601.3,942.5 -601,944.5 				"/>
			</g>
		</g>
	</g>
	<g>
		<path class="st0" d="M-644.6,963.8L-644.6,963.8L-644.6,963.8L-644.6,963.8L-644.6,963.8L-644.6,963.8z M-646,963.5
			c0-0.1,1.5-5.7,7.8-11.6l0,0l1,1c-5.9,5.5-7.3,10.7-7.3,10.9l0,0L-646,963.5L-646,963.5z"/>
	</g>
	<g>
		<path class="st0" d="M-670.8,970.1c0-0.1,1.5-5.7,7.8-11.6l0,0l1,1.1c-6,5.6-7.4,10.9-7.4,10.9l0,0l0,0L-670.8,970.1L-670.8,970.1
			z"/>
	</g>
	<g>
		<path class="st0" d="M-656,979.6c0.9-20,9.4-25.3,9.9-25.6l0,0l0,0l0.8,1.2c-0.2,0.2-8.3,4.8-9.2,24.4l0,0H-656L-656,979.6z"/>
	</g>
	<g>
		<g>
			<g>
				<g>
					<polygon class="st0" points="-604.2,955.1 -603.7,954.8 -596.1,965.5 -596.6,965.8 					"/>
				</g>
			</g>
			<g>
				<g>
					<polygon class="st0" points="-599.2,966.5 -598.2,953.5 -597.6,953.5 -598.6,966.5 					"/>
				</g>
			</g>
		</g>
		<g>
			<g>
				<g>
					<polygon class="st0" points="-613.9,964.8 -613.8,964.2 -601.1,967.5 -601.3,968 					"/>
				</g>
			</g>
			<g>
				<g>
					<polygon class="st0" points="-610.4,959.6 -610,959.3 -602.4,970 -602.9,970.2 					"/>
				</g>
			</g>
		</g>
		<g>
			<g>
				<g>
					<polygon class="st0" points="-615.4,978 -603.7,972.3 -603.4,972.8 -615.1,978.5 					"/>
				</g>
			</g>
			<g>
				<g>
					<polygon class="st0" points="-615.8,972.2 -615.7,971.8 -603,975 -603.2,975.5 					"/>
				</g>
			</g>
		</g>
		<g>
			<g>
				<g>
					<polygon class="st0" points="-607.8,989.5 -602.5,977.6 -601.9,977.8 -607.3,989.8 					"/>
				</g>
			</g>
			<g>
				<g>
					<polygon class="st0" points="-612,985 -600.3,979.3 -600,979.8 -611.8,985.5 					"/>
				</g>
			</g>
		</g>
		<g>
			<g>
				<g>
					<polygon class="st0" points="-598.1,981 -597.6,980.8 -594.1,993.3 -594.6,993.5 					"/>
				</g>
			</g>
			<g>
				<g>
					<polygon class="st0" points="-600.8,992.6 -595.4,980.8 -594.9,981 -600.3,993 					"/>
				</g>
			</g>
		</g>
		<g>
			<g>
				<g>
					<polygon class="st0" points="-592.7,980.8 -592.4,980.2 -581.6,987.5 -581.9,988 					"/>
				</g>
			</g>
			<g>
				<g>
					<polygon class="st0" points="-590.7,978.8 -590.1,978.6 -586.6,991.2 -587.2,991.5 					"/>
				</g>
			</g>
		</g>
		<g>
			<g>
				<g>
					<polygon class="st0" points="-588.7,977 -588.7,976.5 -575.8,975.1 -575.7,975.8 					"/>
				</g>
			</g>
			<g>
				<g>
					<polygon class="st0" points="-588.3,974.3 -588,973.8 -577.3,981.2 -577.6,981.6 					"/>
				</g>
			</g>
		</g>
		<g>
			<g>
				<g>
					<polygon class="st0" points="-588.4,971.2 -579.3,962 -578.9,962.3 -588,971.6 					"/>
				</g>
			</g>
			<g>
				<g>
					<polygon class="st0" points="-589.5,969.3 -589.5,968.8 -576.5,967.5 -576.5,968 					"/>
				</g>
			</g>
		</g>
		<g>
			<g>
				<g>
					<polygon class="st0" points="-591.5,967 -590.5,954 -589.9,954 -590.9,967 					"/>
				</g>
			</g>
			<g>
				<g>
					<polygon class="st0" points="-593.9,965.8 -584.8,956.5 -584.4,957 -593.5,966.2 					"/>
				</g>
			</g>
		</g>
	</g>
	<g>
		<g>
			<g>
				<path class="st0" d="M-660.4,977.5c1.3-0.7,2.3-1.1,2.4-1.1l0.3,0.5c0,0.1-1,0.7-2.2,1.3l-8.8,4.6c-1.3,0.7-2.3,1.1-2.3,1.1
					l-0.3-0.5c0-0.1,1-0.7,2.2-1.3L-660.4,977.5z"/>
			</g>
		</g>
		<g>
			<g>
				<path class="st0" d="M-660,978.5c1.3-0.7,2.3-1.1,2.4-1.1l0.3,0.5c0,0.1-1,0.7-2.2,1.3l-8.8,4.6c-1.3,0.7-2.3,1.1-2.4,1.1
					l-0.3-0.5c0-0.1,1-0.7,2.2-1.3L-660,978.5z"/>
			</g>
		</g>
		<g>
			<g>
				<path class="st0" d="M-659.2,979.6c1.3-0.7,2.3-1.1,2.3-1.1l0.3,0.5c0,0.1-1,0.7-2.2,1.3l-8.8,4.6c-1.3,0.7-2.3,1.1-2.3,1.1
					l-0.3-0.5c0-0.1,1-0.7,2.2-1.3L-659.2,979.6z"/>
			</g>
		</g>
		<g>
			<g>
				<path class="st0" d="M-672,971.1l3.7-1.9c0,0,4.2-2.6,6.4,1.6l-12,6.3C-673.9,977-676.4,973.5-672,971.1z"/>
			</g>
		</g>
		<g>
			<g>
				<path class="st0" d="M-672.1,976.5l8.8-4.6c0.9-0.5,1.8-0.9,2.1-1c0.1,0.2,0.2,0.4,0.3,0.6c-0.4,0.2-1.1,0.7-2,1.2l-8.8,4.6
					c-0.8,0.4-1.6,0.8-2,1c-0.1-0.2-0.3-0.4-0.4-0.6C-673.7,977.3-673,977-672.1,976.5z"/>
			</g>
		</g>
		<g>
			<g>
				<path class="st0" d="M-662.8,973c0.9-0.4,1.6-0.8,2-1c0.1,0.2,0.2,0.4,0.3,0.7c-0.4,0.2-1.1,0.7-1.9,1.1l-8.8,4.6
					c-0.8,0.4-1.5,0.7-1.9,0.9c-0.1-0.2-0.3-0.4-0.4-0.6c0.4-0.2,1.1-0.6,1.9-1.1L-662.8,973z"/>
			</g>
		</g>
		<g>
			<g>
				<path class="st0" d="M-662.2,974.1c0.8-0.4,1.5-0.7,1.9-0.9c0.1,0.2,0.2,0.5,0.3,0.7c-0.4,0.3-1,0.6-1.8,1l-8.8,4.6
					c-0.7,0.4-1.3,0.7-1.7,0.8c-0.1-0.2-0.3-0.4-0.4-0.6c0.4-0.2,1-0.6,1.8-1L-662.2,974.1z"/>
			</g>
		</g>
		<g>
			<g>
				<path class="st0" d="M-670,980.5c-0.6,0.3-1.1,0.6-1.6,0.8c-0.1-0.2-0.3-0.4-0.5-0.6c0.4-0.2,1-0.6,1.6-0.9l8.8-4.6
					c0.7-0.4,1.3-0.7,1.8-0.9c0.1,0.2,0.2,0.5,0.3,0.7c-0.4,0.2-1,0.6-1.6,0.9L-670,980.5z"/>
			</g>
		</g>
		<g>
			<g>
				<path class="st0" d="M-669.4,981.6c-0.5,0.3-1,0.5-1.4,0.7c-0.2-0.2-0.3-0.4-0.5-0.6c0.4-0.2,0.9-0.5,1.4-0.8l8.8-4.6
					c0.6-0.3,1.2-0.6,1.6-0.8c0.1,0.3,0.2,0.5,0.3,0.8c-0.4,0.2-0.9,0.5-1.5,0.8L-669.4,981.6z"/>
			</g>
		</g>
		<g>
			<g>
				<polygon class="st0" points="-669.4,986.5 -672.5,994.8 -640.9,991.6 -640.1,979 -653.6,978.6 -655.6,979.1 				"/>
			</g>
		</g>
	</g>
	<g>
		<g>
			<path class="st0" d="M-713.8,1002.1c1.3,5.4-2,10.9-7.4,12.2c-5.4,1.3-10.9-2-12.2-7.4c-1.3-5.4,2-10.8,7.4-12.2
				C-720.5,993.5-715.1,996.8-713.8,1002.1z"/>
		</g>
	</g>
	<g>
		<g>
			<path class="st0" d="M-585.9,971c1.3,5.4-2,10.8-7.4,12.2c-5.4,1.3-10.9-2-12.2-7.4c-1.3-5.4,2-10.8,7.4-12.2
				C-592.6,962.2-587.2,965.5-585.9,971z"/>
		</g>
	</g>
	<g>
		<g>
			<g>
				<path class="st0" d="M-636.7,946.8l-43.7,17.7l1.4,4l-10.4,34.1l5.8,9.3c2.2,3.6,5.8,2.1,5.8,2.1l33.5-8.1
					c10.3-2.5,9.6-6.8,9.6-6.8l1.1-46.7C-633.7,949-636.7,946.8-636.7,946.8z M-638.3,997.8c0,0-0.1,2.9-3.5,3.7l-35.2,8.8
					c0,0-1.4,0.3-2.6-1.2l-4.5-8.1c0,0-0.5-1.2,0.5-3.5l9-30.1l37.4-14.5L-638.3,997.8z"/>
			</g>
		</g>
	</g>
	<g>
		<g>
			<polygon class="st0" points="-633.7,952.5 -626,941.5 -629.8,937 -639.2,944.2 -637.2,953 			"/>
		</g>
	</g>
	<g>
		<g>
			<path class="st0" d="M-623.2,942.6c0.7,0.9,0.6,2.1-0.2,2.7l-2.9,2.2c-0.8,0.6-2,0.4-2.7-0.6l-8-10.6c-0.7-0.9-0.6-2.1,0.2-2.7
				l2.9-2.2c0.8-0.6,2-0.4,2.7,0.6L-623.2,942.6z"/>
		</g>
	</g>
	<g>
		<path class="st0" d="M-635.6,927.6c0.2,0.2-0.2,0.7-1,1.3l-2,1.6c-0.8,0.6-1,0.7-1.2,0.4l-1.9-2.4c-0.2-0.2-0.1-1.2,0.6-2.5
			l1.5-1.8c0.8-0.6,2,0.9,2,0.9L-635.6,927.6z"/>
	</g>
	<g>
		<g>
			<path class="st0" d="M-618.7,943c-0.1-0.2-1.2,0.5-2.5,1.4l-4.5,3.4c-1.2,0.9-2.1,1.8-2,2l1.4,1.9c0.1,0.2,1.2-0.5,2.5-1.4
				l4.5-3.4c1.2-0.9,2.1-1.8,2-2L-618.7,943z"/>
		</g>
	</g>
	<g>
		<g>
			<path class="st0" d="M-630.2,925.1c-0.1-0.1-1.3,0.6-2.6,1.6l-4.8,3.7c-1.3,1-2.3,1.9-2.2,2.1l1.3,1.7c0.1,0.1,1.3-0.6,2.6-1.6
				l4.8-3.7c1.3-1,2.3-2,2.2-2.1L-630.2,925.1z"/>
		</g>
	</g>
	<g>
		<g>
			<path class="st0" d="M-616.1,942.8c0.9,1.2,1.2,2.4,0.6,2.8l-1.9,1.4c-0.5,0.4-1.7-0.2-2.6-1.4l-10.2-13.5
				c-0.9-1.2-1.2-2.4-0.6-2.8l1.9-1.4c0.5-0.4,1.7,0.2,2.5,1.4L-616.1,942.8z"/>
		</g>
	</g>
	<g>
		<path class="st0" d="M-647.4,933.3c-0.7,0.9-1.6,1.4-2,1.1l-1.3-1.1c-0.4-0.3-0.1-1.3,0.6-2.2l8.4-10.5c0.7-0.9,1.6-1.4,2-1.1
			l1.3,1.1c0.4,0.3,0.1,1.3-0.6,2.2L-647.4,933.3z"/>
	</g>
	<g>
		<g>
			<path class="st0" d="M-591.3,972.5c1.1,1.5,1.4,3.3,0.5,3.9l-3.1,2.3c-0.8,0.6-2.5-0.1-3.6-1.6l-13.3-17.6
				c-1.2-1.5-1.4-3.3-0.5-3.9l3.1-2.3c0.9-0.6,2.5,0.1,3.6,1.6L-591.3,972.5z"/>
		</g>
	</g>
	<g>
		<g>
			<path class="st0" d="M-607.1,951.5c0,0.1-0.6,0.6-1.5,1.3l-3.1,2.3c-0.8,0.6-1.6,1.1-1.6,1.1l-0.5-0.7c0-0.1,0.6-0.6,1.4-1.3
				l3.1-2.3c0.8-0.6,1.6-1.1,1.6-1.1L-607.1,951.5z"/>
		</g>
	</g>
	<g>
		<g>
			<path class="st0" d="M-593.6,972.5c1.5,2,2.4,3.9,1.9,4.3l-1.7,1.3c-0.5,0.4-2.1-1-3.6-3l-17.7-23.4c-1.5-2-2.4-3.9-1.9-4.3
				l1.7-1.3c0.5-0.4,2.1,1,3.6,3L-593.6,972.5z"/>
		</g>
	</g>
	<g>
		<g>
			<path class="st0" d="M-685.4,999.2c0.5,1.1,0,2.3-1.1,2.8l0,0c-1.1,0.5-2.3,0-2.8-1.1l-10.2-24.2c-0.5-1.1,0-2.3,1.1-2.8l0,0
				c1.1-0.5,2.3,0,2.8,1.1L-685.4,999.2z"/>
		</g>
	</g>
	<g>
		<g>
			<g>
				<path class="st0" d="M-688.2,972.5c0.2,0.4,0.5,0.7,0.3,0.9l-5.4,2.9c-0.3,0.2-0.7-0.1-1-0.5l-0.9-1.8c-0.2-0.4-0.2-0.9,0.1-1.1
					l5.4-2.9c0.3-0.2,0.4,0.3,0.6,0.7L-688.2,972.5z"/>
			</g>
		</g>
		<g>
			<g>
				<path class="st0" d="M-682.6,967.5c-0.2-0.4-0.5-0.8-0.4-0.8l1.3-0.7c0.1,0,0.3,0.3,0.5,0.7l0.9,1.8c0.2,0.4,0.4,0.8,0.3,0.9
					l-1.3,0.7c-0.1,0-0.2-0.3-0.5-0.8L-682.6,967.5z"/>
			</g>
		</g>
		<g>
			<g>
				<path class="st0" d="M-681.7,967.2c-0.2-0.3-0.3-0.5-0.2-0.6l1.9-1c0.1-0.1,0.3,0.1,0.5,0.4l0.6,1.2c0.1,0.3,0.2,0.6,0.1,0.6
					l-1.8,1c-0.1,0-0.2-0.2-0.3-0.5L-681.7,967.2z"/>
			</g>
		</g>
		<g>
			<g>
				<path class="st0" d="M-693.8,975.1c0.1,0.3,0.3,0.5,0.2,0.6l-1.8,1c-0.1,0.1-0.3-0.1-0.5-0.4l-0.6-1.2c-0.2-0.3-0.2-0.6-0.1-0.6
					l1.8-1c0.1-0.1,0.2,0.2,0.3,0.5L-693.8,975.1z"/>
			</g>
		</g>
		<g>
			<g>
				<path class="st0" d="M-686.8,972.2c0.3,0.6,0.5,1.1,0.5,1.1l-0.8,0.4c-0.1,0-0.3-0.4-0.7-1l-1.2-2.4c-0.3-0.6-0.5-1.1-0.5-1.1
					l0.8-0.4c0,0,0.3,0.4,0.7,1L-686.8,972.2z"/>
			</g>
		</g>
		<g>
			<g>
				<path class="st0" d="M-685.6,971.5c0.3,0.6,0.5,1.1,0.5,1.1l-0.8,0.4c0,0-0.3-0.4-0.6-1l-1.3-2.4c-0.3-0.6-0.5-1.1-0.5-1.1
					l0.8-0.4c0,0,0.3,0.4,0.6,1L-685.6,971.5z"/>
			</g>
		</g>
		<g>
			<g>
				<path class="st0" d="M-684.3,971c0.3,0.6,0.5,1.1,0.5,1.1l-0.8,0.4c0,0-0.3-0.4-0.6-1l-1.3-2.4c-0.3-0.6-0.5-1.1-0.5-1.1
					l0.8-0.4c0,0,0.3,0.4,0.6,1L-684.3,971z"/>
			</g>
		</g>
		<g>
			<g>
				<path class="st0" d="M-683.1,970.2c0.3,0.6,0.5,1.1,0.5,1.1l-0.8,0.4c0,0-0.3-0.4-0.7-1l-1.3-2.4c-0.3-0.6-0.5-1.1-0.5-1.1
					l0.8-0.4c0,0,0.3,0.4,0.6,1L-683.1,970.2z"/>
			</g>
		</g>
		<g>
			<g>
				<path class="st0" d="M-681.8,969.6c0.3,0.6,0.5,1.1,0.5,1.1l-0.8,0.4c0,0-0.3-0.4-0.7-1l-1.2-2.4c-0.3-0.6-0.5-1.1-0.5-1.1
					l0.8-0.4c0,0,0.3,0.4,0.7,1L-681.8,969.6z"/>
			</g>
		</g>
	</g>
	<g>
		<g>
			<path class="st0" d="M-597.8,973.6c-0.3-1.4,0.5-2.7,1.9-3.1l0,0c1.4-0.3,2.7,0.5,3.1,1.9l0,0c0.3,1.4-0.5,2.7-1.9,3.1l0,0
				C-596.1,975.8-597.5,975-597.8,973.6L-597.8,973.6z M-597.5,973.5c0.3,1.2,1.4,1.9,2.6,1.6l0,0c1.2-0.3,1.9-1.5,1.6-2.6l0,0
				c-0.3-1.2-1.4-1.9-2.6-1.6l0,0C-597,971.1-597.7,972.3-597.5,973.5L-597.5,973.5z"/>
		</g>
	</g>
	<g>
		<g>
			<path class="st0" d="M-679.1,966.3c-0.2-1,0.4-2,1.4-2.3l0,0c1-0.2,2.1,0.4,2.3,1.4l0,0c0.2,1-0.4,2-1.4,2.3l0,0
				C-677.8,968-678.8,967.3-679.1,966.3L-679.1,966.3z M-678.7,966.2c0.2,0.8,1,1.3,1.8,1.1l0,0c0.8-0.2,1.3-1,1.1-1.8l0,0
				c-0.2-0.8-1-1.3-1.8-1.1l0,0C-678.4,964.5-678.9,965.5-678.7,966.2L-678.7,966.2z"/>
		</g>
	</g>
	<g>
		<g>
			<polygon class="st0" points="-699.5,976 -701.7,969.1 -697.5,968.3 -695.3,976.3 			"/>
		</g>
	</g>
	<g>
		<g>
			<path class="st0" d="M-706.5,967.8c0,0-0.9,2.6,5.9,1.7l21.2-5l2.4-1.3l-1.3-1.2l-3.2,0.1L-706.5,967.8z"/>
		</g>
	</g>
	<g>
		<g>
			<path class="st0" d="M-659.9,991.2c0.3,0.9,4.6,14.3,3.7,14.6l-20.5,2.1c-0.9,0.3-1.9-0.2-2.1-1.1l-2.9-9.7
				c-0.3-0.9,0.2-1.8,1.1-2.1l9.7-2.9c0.9-0.3,1.9,0.2,2.1,1.1L-659.9,991.2z"/>
		</g>
	</g>
	<g>
		<g>
			<g>
				<path class="st0" d="M-651.7,1005.3c-6.9,1.7-13.2,1.6-18.7-0.1c-0.1,0-3.3-0.6-4.3-4c0-0.1-2.2-10.2,4.6-12.2l22.9-6.8h0.1
					c1.8-0.4,4.3,0,5.1,2.9c0.2,0.4,5.2,11.3,3.1,15.2v0.1h-0.1C-639.1,1000.5-644.4,1003.5-651.7,1005.3L-651.7,1005.3z"/>
			</g>
		</g>
		<g>
			<g>
				<path class="st0" d="M-647.1,982.6c0.6-0.1,3.7-0.7,4.7,2.6c0,0,5.2,11.2,3.2,15c0,0-5.3,3.1-12.6,4.8
					c-5.5,1.3-12.1,1.9-18.6-0.1c0,0-3.1-0.5-4.1-3.8c0,0-2.2-9.8,4.3-11.8l22.9-6.8C-647.2,982.6-647.2,982.6-647.1,982.6
					 M-647.2,982C-647.3,982-647.3,982-647.2,982l-23,6.8c-5.6,1.7-5.6,9-4.8,12.6c1,3.4,4.1,4.2,4.6,4.3c5.6,1.7,12,1.7,18.9,0.1
					c7.3-1.8,12.5-4.8,12.8-4.9l0.2-0.1l0.1-0.2c2.1-3.9-2.5-14.1-3.1-15.5C-642.6,982-645.3,981.5-647.2,982L-647.2,982z"/>
			</g>
		</g>
	</g>
	<g>
		<g>
			<path class="st0" d="M-673.5,1001.3c-1.4-4.8,7.7-11.8,19.7-15.4c4.8-1.4,9.9,1.3,11.4,6.1c1.4,4.8-1.3,9.9-6.2,11.3
				C-659.8,1006.6-672.1,1006.1-673.5,1001.3z"/>
		</g>
		<g>
			<path class="st0" d="M-665.8,1005.6c-4.1-0.5-7.2-1.8-8-4.2l0,0l0,0c0-0.1,0-0.1-0.1-0.2l0,0c-0.6-2.7,1.5-5.6,5.1-8.4l0,0
				c3.6-2.8,8.9-5.4,14.9-7.2l0,0c0.2,0,0.3-0.1,0.5-0.1l0,0c4.9-1.2,9.9,1.6,11.3,6.4l0,0c0,0.2,0.1,0.3,0.1,0.5l0,0
				c1.2,4.8-1.7,9.8-6.6,11.3l0,0c-0.9,0.3-1.8,0.5-2.7,0.7l0,0C-656.4,1005.6-661.7,1006-665.8,1005.6L-665.8,1005.6z M-665.8,1005
				c4.1,0.4,9.3,0,14.4-1.2l0,0c0.9-0.2,1.7-0.4,2.6-0.7l0,0c4.5-1.4,7.2-6,6.1-10.5l0,0c0-0.1-0.1-0.3-0.1-0.4l0,0
				c-1.3-4.5-6-7.1-10.5-6l0,0c-0.2,0-0.3,0.1-0.5,0.1l0,0c-5.9,1.8-11.1,4.3-14.7,7.1l0,0c-3.6,2.7-5.4,5.6-4.9,7.7l0,0
				c0,0.1,0,0.1,0,0.2l0,0l-0.3,0.1l0.3-0.1C-672.6,1003.1-669.8,1004.5-665.8,1005L-665.8,1005z"/>
		</g>
	</g>
	<g>
		<g>
			<g>
				<path class="st0" d="M-651,975c-1.4,0-2.6,0-2.6,0.1v0.6c0,0.1,1.2,0.2,2.6,0.2l9.9,0.1c1.4,0,2.6,0,2.6-0.1v-0.6
					c0-0.1-1.1-0.2-2.6-0.2L-651,975z"/>
			</g>
		</g>
		<g>
			<g>
				<path class="st0" d="M-651,976.1c-1.4,0-2.6,0-2.6,0.1v0.6c0,0.1,1.2,0.2,2.6,0.2l9.9,0.1c1.4,0,2.6,0,2.6-0.1v-0.6
					c0-0.1-1.2-0.2-2.6-0.2L-651,976.1z"/>
			</g>
		</g>
		<g>
			<g>
				<path class="st0" d="M-651.1,977.5c-1.4,0-2.6,0-2.6,0.1v0.6c0,0.1,1.2,0.2,2.6,0.2l9.9,0.1c1.4,0,2.6,0,2.6-0.1v-0.6
					c0-0.1-1.1-0.2-2.6-0.2L-651.1,977.5z"/>
			</g>
		</g>
		<g>
			<g>
				<path class="st0" d="M-643.6,964h-4.2c0,0-4.9-0.4-5,4.3l13.5,0.1C-639.2,968.5-638.6,964.1-643.6,964z"/>
			</g>
		</g>
		<g>
			<g>
				<path class="st0" d="M-641,968.8l-9.9-0.1c-1.1,0-2,0-2.4,0.1c0,0.2,0,0.5,0,0.7c0.4,0.1,1.3,0.1,2.3,0.1l9.9,0.1
					c0.9,0,1.8,0,2.2-0.1c0-0.2,0-0.5,0.1-0.7C-639.2,968.8-640,968.8-641,968.8z"/>
			</g>
		</g>
		<g>
			<g>
				<path class="st0" d="M-650.9,970c-1,0-1.8,0-2.3,0.1c0,0.2,0,0.5,0.1,0.7c0.5,0,1.3,0.1,2.2,0.1l9.9,0.1c0.9,0,1.6,0,2.1,0
					c0-0.2,0.1-0.5,0.1-0.7c-0.5,0-1.3-0.1-2.2-0.1L-650.9,970z"/>
			</g>
		</g>
		<g>
			<g>
				<path class="st0" d="M-651,971.2c-0.9,0-1.7,0-2.1,0c0,0.2,0,0.5,0.1,0.7c0.5,0,1.2,0.1,2,0.1l9.9,0.1c0.8,0,1.5,0,1.9,0
					c0-0.2,0.1-0.5,0.1-0.7c-0.5,0-1.2-0.1-2-0.1L-651,971.2z"/>
			</g>
		</g>
		<g>
			<g>
				<path class="st0" d="M-641.1,973.5c0.7,0,1.3,0,1.7,0c0-0.3,0.1-0.5,0.1-0.8c-0.5,0-1.1-0.1-1.9-0.1l-9.9-0.1c-0.8,0-1.5,0-2,0
					c0,0.3,0.1,0.5,0.1,0.8c0.5,0,1.1,0.1,1.9,0.1L-641.1,973.5z"/>
			</g>
		</g>
		<g>
			<g>
				<path class="st0" d="M-641.1,974.6c0.6,0,1.1,0,1.5,0c0.1-0.2,0.1-0.5,0.1-0.8c-0.4,0-1,0-1.7,0l-9.9-0.1c-0.7,0-1.3,0-1.8,0
					c0,0.3,0.1,0.5,0.1,0.8c0.4,0,1,0,1.7,0L-641.1,974.6z"/>
			</g>
		</g>
	</g>
	<g>
		<g>
			<g>
				<path class="st0" d="M-660.7,997.5c-1.2-4.2,1.1-8.6,5.3-9.8c4.2-1.3,8.6,1.1,9.8,5.3c1.2,4.2-1.1,8.6-5.3,9.8
					C-655.1,1004-659.5,1001.6-660.7,997.5z"/>
			</g>
		</g>
		<g>
			<g>
				<path class="st0" d="M-660.1,997.2c-1.2-3.9,1.1-8,5-9.1c3.9-1.2,8,1.1,9.2,4.9c1.2,3.9-1.1,8-5,9.2
					C-654.9,1003.3-659,1001.1-660.1,997.2z"/>
			</g>
		</g>
	</g>
	<g>
		<g>
			<path class="st0" d="M-633.2,973.1c0,0,3.2,1.8,3.6,15.7c0,0-2,12-13.4,20c0,0-23.2,10.1-42.8,11.1l-19.1-4.9l-5.2,1.3l-0.7-3.1
				l5-1.2l21-2.6l40.8-4.6c0,0,9.8-8.5,10.4-17.6L-633.2,973.1z"/>
		</g>
	</g>
	<g>
		<g>
			<path class="st0" d="M-714.5,967c0,0,5.6,5,33.2-2.3c0,0,2.7-1.9,0.9-2.8c0,0-3-2.6-6.2,0.5c0,0-3.5-2-6.4,0.7
				c0,0-3.2-2.6-6.2,0.3c0,0-2.4-3.8-6.3-0.7c0,0-3.5-3.1-6.3-0.7c0,0-4.6-4.2-6.7,0C-718.6,962-720,965.2-714.5,967z"/>
		</g>
	</g>
	<g>
		<g>
			<path class="st0" d="M-714.8,1002.8c0.6,2.4-0.9,4.9-3.3,5.5l-4.3,1c-2.4,0.6-4.9-0.9-5.5-3.3l0,0c-0.6-2.5,0.9-4.9,3.3-5.5
				l4.3-1C-717.8,999-715.4,1000.5-714.8,1002.8L-714.8,1002.8z"/>
		</g>
	</g>
	<g>
		<g>
			<polygon class="st0" points="-715.5,1002.3 -685.4,999.2 -683.6,1005.2 -719.7,1007.3 			"/>
		</g>
	</g>
	<g>
		<g>
			<path class="st0" d="M-689,1002.8c-0.2-1,0.4-2.1,1.4-2.3l0,0c1-0.2,2.1,0.4,2.3,1.4l0,0c0.2,1-0.4,2-1.4,2.3l0,0
				C-687.7,1004.5-688.8,1003.8-689,1002.8L-689,1002.8z M-688.6,1002.8c0.2,0.8,1,1.3,1.8,1.1l0,0c0.8-0.2,1.3-1,1.1-1.8l0,0
				c-0.2-0.8-1-1.3-1.8-1.1l0,0C-688.3,1001-688.8,1002-688.6,1002.8L-688.6,1002.8z"/>
		</g>
	</g>
	<g>
		<g>
			<path class="st0" d="M-726.6,1005.8c-0.4-1.7,0.6-3.4,2.3-3.8l0,0c1.7-0.4,3.4,0.6,3.8,2.3l0,0c0.4,1.7-0.6,3.4-2.3,3.8l0,0
				C-724.6,1008.5-726.2,1007.5-726.6,1005.8L-726.6,1005.8z M-726.3,1005.8c0.4,1.5,1.8,2.4,3.3,2l0,0c1.5-0.4,2.4-1.8,2-3.3l0,0
				c-0.4-1.5-1.8-2.4-3.3-2l0,0C-725.7,1002.8-726.6,1004.2-726.3,1005.8L-726.3,1005.8z"/>
		</g>
	</g>
	<g>
		<g>
			<polygon class="st0" points="-720.1,1001.6 -698.9,974.3 -696,978.6 -715.9,1002.5 			"/>
		</g>
	</g>
	<g>
		<g>
			<path class="st0" d="M-699.5,976.8c-0.2-1,0.4-2,1.4-2.3l0,0c1-0.2,2,0.4,2.3,1.4l0,0c0.2,1-0.4,2-1.4,2.3l0,0
				C-698.2,978.3-699.2,977.8-699.5,976.8L-699.5,976.8z M-699.1,976.6c0.2,0.8,1,1.3,1.8,1.1l0,0c0.8-0.2,1.3-1,1.1-1.8l0,0
				c-0.2-0.8-1-1.3-1.8-1.1l0,0C-698.8,975-699.3,975.8-699.1,976.6L-699.1,976.6z"/>
		</g>
	</g>
	<g>
		<g>
			<path class="st0" d="M-678.2,963.6l40.3-15.9c0,0-0.2-10.2-3.6-12.7c0,0-2.8-3.5-22.2,10.1c0,0-16.3,11.5-15.9,17.4L-678.2,963.6
				z"/>
		</g>
	</g>
	<g>
		<path class="st0" d="M-643.9,963.3c0,0.3-0.2,0.5-0.5,0.5l-1.9,0.1c-0.3,0-0.5-0.2-0.5-0.5l0,0c0-0.3,0.2-0.5,0.5-0.5h1.9
			C-644.1,962.8-643.9,963-643.9,963.3L-643.9,963.3z"/>
	</g>
	<g>
		<line class="st1" x1="-731.9" y1="974.5" x2="-731.9" y2="974.2"/>
	</g>
</g>
<g class="st2">
	<path class="st0" d="M-752.2,1047.2h7.8c1,0,1.9,0.1,2.7,0.3c0.8,0.2,1.5,0.6,2.1,1c0.6,0.4,1.1,1,1.4,1.7c0.3,0.7,0.5,1.5,0.5,2.4
		c0,0.6-0.1,1.2-0.2,1.6c-0.2,0.4-0.3,0.8-0.5,1.1c-0.2,0.4-0.5,0.7-0.8,0.9c0.4,0.3,0.8,0.6,1.2,1.1c0.3,0.4,0.6,0.9,0.8,1.4
		s0.4,1.3,0.4,2.1c0,1-0.2,1.8-0.5,2.6c-0.3,0.8-0.8,1.4-1.5,2c-0.6,0.6-1.4,1-2.3,1.3s-1.9,0.4-3,0.4h-8.2V1047.2z M-744.9,1064.8
		c1.8,0,3.1-0.4,3.9-1.1c0.8-0.8,1.3-1.8,1.3-3c0-0.8-0.2-1.5-0.5-2c-0.4-0.5-0.7-0.9-1.1-1.2c-0.5-0.3-1-0.5-1.6-0.7
		c0.5-0.1,0.9-0.4,1.3-0.7c0.3-0.3,0.6-0.6,0.9-1.1s0.4-1,0.4-1.7c0-1.3-0.4-2.2-1.2-2.9c-0.8-0.6-1.9-1-3.3-1h-4.3v15.2H-744.9z
		 M-748.4,1056.5v-6.2h3.5c1.3,0,2.2,0.3,2.8,0.9c0.6,0.6,0.9,1.3,0.9,2.2s-0.3,1.7-0.9,2.2c-0.6,0.6-1.5,0.9-2.8,0.9H-748.4z
		 M-748.4,1064.1v-6.9h3.5c0.6,0,1.2,0.1,1.7,0.2c0.5,0.1,1,0.3,1.4,0.6c0.4,0.3,0.7,0.6,0.9,1.1c0.2,0.4,0.3,1,0.3,1.6
		c0,1.2-0.4,2.1-1.2,2.6s-1.9,0.8-3.2,0.8H-748.4z M-743.8,1053.3c0-0.9-0.5-1.4-1.5-1.4h-0.7v2.8h0.7
		C-744.3,1054.7-743.8,1054.2-743.8,1053.3z M-745.3,1062.5c1.5,0,2.3-0.6,2.3-1.7c0-1.2-0.8-1.7-2.3-1.7h-0.7v3.5H-745.3z"/>
	<path class="st0" d="M-735.4,1047.2h6.8v20h-6.8V1047.2z M-731.6,1064.8v-15.2h-0.8v15.2H-731.6z"/>
	<path class="st0" d="M-726.5,1047.2h6.5v4.6l3.8-4.6h7.8l-7.1,9.1l7.4,10.9h-7.7l-4.3-6.2v6.2h-6.5V1047.2z M-722.7,1064.8v-4
		l3.1-3.9l5.5,7.9h0.9l-5.8-8.5l5.4-6.7h-1l-8.1,10v-10h-0.8v15.2H-722.7z"/>
	<path class="st0" d="M-707.4,1047.2h6.8v20h-6.8V1047.2z M-703.7,1064.8v-15.2h-0.8v15.2H-703.7z"/>
	<path class="st0" d="M-698.6,1047.2h11.8v5.2h-5.4v2.2h5.3v5h-5.3v2.3h5.6v5.2h-12V1047.2z M-688.8,1064.8v-0.7h-6v-6.6h5.7v-0.7
		h-5.7v-6.5h6v-0.7h-6.8v15.2H-688.8z"/>
	<path class="st0" d="M-685.3,1061c0.4,0.1,0.9,0.2,1.4,0.3c0.4,0.1,0.9,0.2,1.4,0.2c0.5,0.1,1,0.1,1.5,0.1c0.9,0,1.4-0.3,1.4-1
		c0-0.3-0.1-0.5-0.4-0.8c-0.3-0.3-0.6-0.6-1.1-0.9s-0.9-0.7-1.4-1.1c-0.5-0.4-1-0.9-1.4-1.4c-0.4-0.5-0.8-1.1-1.1-1.8
		c-0.3-0.6-0.4-1.4-0.4-2.2c0-0.9,0.2-1.8,0.5-2.5c0.3-0.7,0.8-1.3,1.4-1.8c0.6-0.5,1.3-0.8,2.1-1.1c0.8-0.2,1.7-0.4,2.6-0.4
		c0.5,0,1,0,1.4,0.1s0.9,0.1,1.3,0.1c0.4,0.1,0.9,0.1,1.3,0.2v5.6c-0.2,0-0.3,0-0.5-0.1c-0.2,0-0.3,0-0.5-0.1c-0.2,0-0.4,0-0.6,0
		c-0.1,0-0.3,0-0.5,0c-0.2,0-0.4,0-0.5,0.1c-0.2,0-0.3,0.1-0.4,0.2c-0.1,0.1-0.2,0.2-0.2,0.4c0,0.2,0.1,0.4,0.4,0.6
		c0.3,0.2,0.6,0.5,1,0.8c0.4,0.3,0.8,0.7,1.3,1.1c0.5,0.4,0.9,0.9,1.3,1.4c0.4,0.5,0.7,1.2,1,1.8s0.4,1.4,0.4,2.3
		c0,0.9-0.1,1.7-0.4,2.5s-0.7,1.4-1.3,2c-0.6,0.6-1.3,1-2.3,1.3s-2,0.5-3.3,0.5c-0.8,0-1.5,0-2.1-0.1c-0.7-0.1-1.2-0.2-1.7-0.3
		c-0.6-0.1-1.1-0.2-1.6-0.4V1061z M-682.8,1064.6c0.3,0.1,0.6,0.1,0.9,0.2c0.3,0,0.6,0.1,0.9,0.1c0.3,0,0.6,0,0.9,0
		c0.6,0,1.1-0.1,1.6-0.2c0.5-0.1,1-0.3,1.4-0.6c0.4-0.3,0.8-0.7,1-1.2c0.2-0.5,0.4-1,0.4-1.7c0-0.6-0.1-1.1-0.4-1.6
		c-0.3-0.5-0.7-1-1.1-1.5c-0.4-0.5-0.9-0.9-1.4-1.4c-0.5-0.4-1-0.9-1.4-1.3c-0.4-0.5-0.8-0.9-1.1-1.4c-0.3-0.5-0.4-0.9-0.4-1.4
		c0-0.7,0.2-1.3,0.7-1.7c0.5-0.4,1.2-0.6,2.2-0.6c0.2,0,0.3,0,0.5,0c0.2,0,0.3,0,0.5,0c0.2,0,0.3,0,0.5,0v-0.8c-0.1,0-0.3,0-0.4,0
		c-0.1,0-0.3,0-0.5,0c-0.2,0-0.3,0-0.5,0c-1.1,0-2,0.2-2.7,0.7c-0.7,0.5-1,1.3-1,2.3c0,0.6,0.1,1.1,0.4,1.6c0.3,0.5,0.7,1,1.1,1.4
		c0.4,0.5,0.9,0.9,1.4,1.4c0.5,0.4,1,0.9,1.4,1.3s0.8,0.9,1.1,1.4c0.3,0.5,0.4,1,0.4,1.5c0,1-0.3,1.7-1,2.2s-1.5,0.8-2.7,0.8
		c-0.7,0-1.3,0-1.9-0.2c-0.3,0-0.6-0.1-0.9-0.1V1064.6z"/>
	<path class="st0" d="M-665.3,1047.2h6.4v6.8h3.6v-6.8h6.4v20h-6.4v-7.4h-3.6v7.4h-6.4V1047.2z M-661.5,1064.8v-7.6h8.8v7.6h0.8
		v-15.2h-0.8v6.9h-8.8v-6.9h-0.8v15.2H-661.5z"/>
	<path class="st0" d="M-646.8,1047.2h11.8v5.2h-5.4v2.2h5.3v5h-5.3v2.3h5.6v5.2h-12V1047.2z M-637,1064.8v-0.7h-6v-6.6h5.7v-0.7
		h-5.7v-6.5h6v-0.7h-6.8v15.2H-637z"/>
	<path class="st0" d="M-627,1047.2h4.8l7.6,20h-6.3l-0.7-1.8h-6.1l-0.7,1.8h-6.3L-627,1047.2z M-630.2,1064.8l0.6-1.5h9.9l0.6,1.5
		h0.8l-5.8-15.2h-1.1l-5.8,15.2H-630.2z M-624.6,1050.4l4.7,12.3h-9.4L-624.6,1050.4z M-623.3,1061l-1.4-3.5l-1.3,3.5H-623.3z"/>
	<path class="st0" d="M-612.5,1047.2l3.4,8.7l3.4-8.7h7l-7.8,20h-5.2l-7.8-20H-612.5z M-608.7,1064.8l5.9-15.2h-0.8l-5.4,13.8
		l-5.4-13.8h-0.8l5.9,15.2H-608.7z"/>
	<path class="st0" d="M-598.2,1047.2h11.8v5.2h-5.4v2.2h5.3v5h-5.3v2.3h5.6v5.2h-12V1047.2z M-588.4,1064.8v-0.7h-6v-6.6h5.7v-0.7
		h-5.7v-6.5h6v-0.7h-6.8v15.2H-588.4z"/>
	<path class="st0" d="M-584.4,1047.2h5.2l5.5,7.7v-7.7h6.3v20h-5.3l-5.5-7.7v7.7h-6.3V1047.2z M-580.8,1064.8V1051l9.9,13.9h0.8
		v-15.2h-0.8v13.9l-9.9-13.9h-0.8v15.2H-580.8z"/>
</g>
</svg>
